<?xml version="1.0" encoding="iso-8859-1"?>
<!-- Generator: Adobe Illustrator 19.0.0, SVG Export Plug-In . SVG Version: 6.00 Build 0)  -->
<svg version="1.1" id="Capa_1" xmlns="http://www.w3.org/2000/svg" xmlns:xlink="http://www.w3.org/1999/xlink" x="0px" y="0px"
	 viewBox="0 0 512 512" style="enable-background:new 0 0 512 512;" xml:space="preserve">
<path style="fill:#009AF2;" d="M89.221,240.928V461.78H8.241c-4.552,0-8.241-3.69-8.241-8.241v-204.37
	c0-4.552,3.69-8.241,8.241-8.241L89.221,240.928L89.221,240.928z"/>
<rect x="32.574" y="240.932" style="fill:#006FD3;" width="56.647" height="220.85"/>
<path style="fill:#FFC197;" d="M512,218.46v19.56c0,15.568-12.62,28.188-28.188,28.188h-16.017
	c13.554,0.969,24.28,12.251,24.28,26.059v21.848c0,14.445-11.71,26.155-26.155,26.155H443.5c13.046,0,23.612,10.567,23.612,23.612
	v18.829c0,13.041-10.572,23.612-23.612,23.612h-21.721c13.046,0,23.612,10.583,23.612,23.628v14.062
	c0,13.03-10.567,23.612-23.612,23.612h-317.24v-228.32c36.626,0,66.07-3.686,89.666-10.074
	c75.524-20.387,91.239-68.199,91.239-110.132c0-21.674,0-77.177,0-77.177c0-5.005,2.034-9.55,5.307-12.839
	c3.289-3.289,7.818-5.323,12.839-5.323c32.32,0,58.506,26.186,58.506,58.49v75.603c0,17.894,14.506,32.399,32.399,32.399h89.3
	C499.372,190.256,512,202.883,512,218.46z"/>
<path style="fill:#FF9E5C;" d="M188.008,230.804c-22.502,5.413-49.974,8.503-83.469,8.503v228.32h83.469V230.804z"/>
<path style="fill:#3BC3FF;" d="M159.599,488.241H62.796c-4.552,0-8.241-3.69-8.241-8.241V222.713c0-4.552,3.69-8.241,8.241-8.241
	h96.802c4.552,0,8.241,3.69,8.241,8.241v257.287C167.84,484.551,164.15,488.241,159.599,488.241z"/>
<g>
	<path style="fill:#D7F4F9;" d="M111.198,465.577c-4.267,0-7.726-3.459-7.726-7.726v-2.605c0-4.267,3.459-7.726,7.726-7.726
		s7.726,3.459,7.726,7.726v2.605C118.924,462.118,115.465,465.577,111.198,465.577z"/>
	<path style="fill:#D7F4F9;" d="M111.198,436.115c-4.267,0-7.726-3.459-7.726-7.726v-2.605c0-4.267,3.459-7.726,7.726-7.726
		s7.726,3.459,7.726,7.726v2.605C118.924,432.655,115.465,436.115,111.198,436.115z"/>
</g>
<g>
</g>
<g>
</g>
<g>
</g>
<g>
</g>
<g>
</g>
<g>
</g>
<g>
</g>
<g>
</g>
<g>
</g>
<g>
</g>
<g>
</g>
<g>
</g>
<g>
</g>
<g>
</g>
<g>
</g>
</svg>
